<svg xmlns="http://www.w3.org/2000/svg" xml:space="preserve" fill-rule="evenodd" stroke-linejoin="round" stroke-miterlimit="2" clip-rule="evenodd" viewBox="0 0 497 497"><g fill-rule="nonzero"><path fill="url(#a)" d="M430,190.96L430,191.66C429.92,211.87 426.55,231.31 420.39,249.45C396.03,321.16 328.16,372.74 248.24,372.74C168.32,372.74 100.45,321.16 76.09,249.45C69.9,231.16 66.51,211.56 66.48,191.17L66.48,190.97C66.48,170.51 69.85,150.85 76.09,132.5C89.7,92.4 116.94,58.6 152.28,36.59C180.11,19.24 213.02,9.21 248.25,9.21C283.48,9.21 316.67,19.33 344.59,36.84C379.76,58.83 406.84,92.55 420.41,132.5C426.64,150.85 430.02,170.51 430.02,190.97L430,190.96Z" transform="matrix(1,0,0,1,0,57.285)"/><path fill="#170941" d="M248.24,381.93C166.38,381.93 93.7,329.88 67.38,252.4C60.7,232.67 57.31,212.08 57.29,191.17C57.29,169.92 60.69,149.25 67.38,129.53C81.51,87.9 109.93,52.12 147.41,28.77C177.61,9.95 212.47,0 248.24,0C284.01,0 319.18,10.04 349.46,29.04C386.71,52.33 415,88.03 429.1,129.54C435.8,149.26 439.19,169.93 439.19,190.96L439.19,191.65C439.11,212.46 435.71,232.89 429.1,252.4C402.78,329.88 330.1,381.94 248.24,381.94L248.24,381.93ZM248.24,18.39C215.92,18.39 184.42,27.38 157.14,44.38C123.26,65.49 97.56,97.82 84.8,135.44C78.75,153.25 75.68,171.93 75.68,190.95C75.7,210.05 78.77,228.67 84.8,246.49C108.58,316.49 174.27,363.53 248.24,363.53C322.21,363.53 387.91,316.49 411.69,246.48C417.66,228.86 420.73,210.39 420.81,191.6L420.81,190.94C420.81,171.92 417.74,153.24 411.69,135.43C398.95,97.92 373.38,65.67 339.7,44.61C312.34,27.45 280.72,18.38 248.24,18.38L248.24,18.39Z" transform="matrix(1,0,0,1,0,57.285)"/></g><g fill-rule="nonzero"><path fill="#ecebf2" d="M474.61,114.83C474.61,126.42 472.38,137.49 468.32,147.63C457.8,137.9 443.71,131.96 428.26,131.96C425.58,131.96 422.97,132.14 420.39,132.49C406.82,92.54 379.74,58.82 344.57,36.83C356.97,30.19 371.14,26.43 386.2,26.43C435.02,26.43 474.61,66.02 474.61,114.84L474.61,114.83Z" transform="matrix(1,0,0,1,0,57.285)"/><path fill="#170941" d="M471.88,163.45L462.08,154.39C451.24,144.37 436.44,139.61 421.63,141.61L414.13,142.62L411.7,135.45C398.96,97.94 373.39,65.69 339.71,44.63L326.26,36.22L340.25,28.73C354.29,21.21 370.18,17.24 386.22,17.24C440.04,17.24 483.82,61.03 483.82,114.84C483.82,127.37 481.48,139.56 476.87,151.07L471.9,163.46L471.88,163.45ZM428.26,122.76C440.78,122.76 452.9,126.16 463.44,132.52C464.76,126.76 465.42,120.85 465.42,114.83C465.42,71.15 429.89,35.62 386.21,35.62C378.57,35.62 370.98,36.73 363.71,38.87C392.03,60.39 413.95,89.54 426.67,122.78C427.2,122.77 427.74,122.76 428.27,122.76L428.26,122.76Z" transform="matrix(1,0,0,1,0,57.285)"/></g><g fill-rule="nonzero"><path fill="#ecebf2" d="M487.28,190.96C487.28,223.56 460.86,249.98 428.26,249.98C425.58,249.98 422.97,249.8 420.39,249.45C426.54,231.3 429.91,211.87 430,191.66L430,190.96C430,170.5 426.63,150.84 420.39,132.49C422.96,132.14 425.58,131.96 428.26,131.96C443.71,131.96 457.79,137.91 468.32,147.63C479.99,158.4 487.28,173.83 487.28,190.95L487.28,190.96Z" transform="matrix(1,0,0,1,0,57.285)"/><path fill="#170941" d="M428.26,259.17C425.24,259.17 422.18,258.96 419.16,258.56L408.1,257.07L411.68,246.5C417.66,228.87 420.72,210.41 420.8,191.62L420.8,190.96C420.8,171.94 417.73,153.26 411.68,135.45L408.09,124.87L419.16,123.38C439.4,120.64 459.7,127.15 474.55,140.88C488.48,153.73 496.47,171.99 496.47,190.96C496.47,228.57 465.87,259.18 428.25,259.18L428.26,259.17ZM432.69,141.35C437.01,157.45 439.19,174.08 439.19,190.96L439.19,191.65C439.12,208.3 436.94,224.7 432.68,240.58C458.09,238.33 478.08,216.93 478.08,190.95C478.08,177.1 472.25,163.77 462.07,154.38C453.93,146.85 443.63,142.31 432.68,141.34L432.69,141.35Z" transform="matrix(1,0,0,1,0,57.285)"/></g><g fill-rule="nonzero"><path fill="#fff" d="M152.27,36.58C116.94,58.59 89.69,92.39 76.08,132.49C73.51,132.14 70.87,131.96 68.19,131.96C53.03,131.96 39.23,137.66 28.77,147.06C24.85,137.09 22.7,126.22 22.7,114.83C22.7,66.01 62.28,26.42 111.11,26.42C125.97,26.42 139.97,30.08 152.27,36.58Z" transform="matrix(1,0,0,1,0,57.285)"/><path fill="#170941" d="M25.07,162.75L20.22,150.42C15.77,139.11 13.51,127.13 13.51,114.83C13.51,61.01 57.3,17.23 111.11,17.23C126.95,17.23 142.67,21.11 156.56,28.45L170.71,35.93L157.12,44.39C123.24,65.5 97.55,97.83 84.78,135.45L82.35,142.62L74.85,141.61C60.38,139.67 45.71,144.21 34.92,153.91L25.07,162.76L25.07,162.75ZM111.11,35.62C67.43,35.62 31.9,71.15 31.9,114.83C31.9,120.69 32.53,126.46 33.78,132.07C44.6,125.74 57.06,122.44 69.81,122.78C82.56,89.46 104.57,60.24 133.03,38.67C125.98,36.64 118.65,35.62 111.11,35.62Z" transform="matrix(1,0,0,1,0,57.285)"/></g><g fill-rule="nonzero"><path fill="#fff" d="M66.48,191.16C66.5,211.56 69.89,231.15 76.09,249.44C73.52,249.79 70.88,249.97 68.2,249.97C35.6,249.97 9.2,223.55 9.2,190.95C9.2,173.52 16.76,157.84 28.78,147.05C39.24,137.65 53.04,131.95 68.2,131.95C70.88,131.95 73.51,132.13 76.09,132.48C69.86,150.83 66.48,170.49 66.48,190.95L66.48,191.16Z" transform="matrix(1,0,0,1,0,57.285)"/><path fill="#170941" d="M68.19,259.17C30.59,259.17 0,228.57 0,190.96C0,171.63 8.25,153.14 22.63,140.22C37.41,126.94 57.53,120.71 77.31,123.38L88.38,124.87L84.79,135.45C78.74,153.26 75.67,171.94 75.67,190.96L66.47,191.16L75.67,191.16C75.69,210.06 78.76,228.68 84.79,246.5L88.37,257.07L77.31,258.56C74.29,258.97 71.23,259.17 68.19,259.17ZM63.79,141.35C53.09,142.3 42.97,146.67 34.92,153.9C24.41,163.33 18.39,176.84 18.39,190.96C18.39,216.95 38.38,238.36 63.79,240.59C59.48,224.51 57.29,207.94 57.28,191.17L57.28,190.96C57.28,174.09 59.47,157.45 63.79,141.35Z" transform="matrix(1,0,0,1,0,57.285)"/></g><path fill="#fff" fill-rule="nonzero" d="M306.53,220.73L279.3,207.33L327.98,108.4L358.75,114.59L306.53,220.73Z" transform="matrix(1,0,0,1,0,57.285)"/><rect width="9.69" height="99" x="348.03" y="116.21" fill="#fff" transform="matrix(1,0,0,1,0,57.285) matrix(0.897258,0.441506,-0.441506,0.897258,109.39,-138.75)"/><g fill-rule="nonzero"><path fill="#fff" d="M323.51,229.05C282.99,189.77 248.23,215.78 248.23,215.78C248.23,215.78 213.47,189.78 172.95,229.05C146.14,255.03 127.21,259.63 127.21,259.63C127.21,259.63 180.99,317.9 248.23,259.92C315.47,317.91 369.25,259.63 369.25,259.63C369.25,259.63 350.32,255.03 323.51,229.05Z" transform="matrix(1,0,0,1,0,57.285)"/><path fill="#170941" d="M308.95,294.79C290.9,294.79 270.23,288.9 248.23,271.8C177.85,326.49 121.03,266.5 120.45,265.86L109.85,254.38L125.04,250.69C125.13,250.67 142.3,245.95 166.55,222.44C199.01,190.97 231.46,195.98 248.23,204.94C265,195.98 297.45,190.98 329.91,222.44C354.16,245.95 371.34,250.66 371.51,250.71L386.3,254.6L376.01,265.86C375.61,266.29 348.63,294.78 308.95,294.78L308.95,294.79ZM144.37,262.16C161.62,274.3 198.5,290.66 242.23,252.96L248.23,247.78L254.23,252.96C297.94,290.65 334.82,274.32 352.09,262.16C343.26,257.36 331.1,249.22 317.11,235.66C283.02,202.61 254.86,222.33 253.68,223.19L248.2,227.16L242.72,223.15C241.6,222.34 213.44,202.62 179.35,235.66C165.36,249.22 153.2,257.36 144.37,262.16Z" transform="matrix(1,0,0,1,0,57.285)"/></g><path fill="#170941" fill-rule="nonzero" d="M303.89,175.79C302.66,175.79 301.42,175.54 300.22,175.02C295.56,172.99 293.43,167.57 295.46,162.91C299.99,152.51 310.24,145.79 321.58,145.79C332.92,145.79 343.14,152.49 347.68,162.86C349.72,167.51 347.6,172.94 342.95,174.97C338.3,177 332.88,174.89 330.84,170.24C329.23,166.56 325.6,164.18 321.59,164.18C317.58,164.18 313.94,166.56 312.34,170.25C310.83,173.71 307.45,175.77 303.9,175.77L303.89,175.79Z" transform="matrix(1,0,0,1,0,57.285)"/><path fill="#170941" fill-rule="nonzero" d="M192.7,176.77C188.97,176.77 185.45,174.48 184.08,170.77C182.62,166.83 178.82,164.19 174.62,164.19C170.42,164.19 166.62,166.84 165.16,170.77C163.39,175.53 158.1,177.95 153.34,176.18C148.58,174.41 146.16,169.12 147.93,164.36C152.06,153.26 162.79,145.79 174.63,145.79C186.47,145.79 197.21,153.25 201.33,164.36C203.1,169.12 200.67,174.41 195.91,176.18C194.85,176.57 193.77,176.76 192.71,176.76L192.7,176.77Z" transform="matrix(1,0,0,1,0,57.285)"/><path fill="#170941" fill-rule="nonzero" d="M191.77,111.1L159.07,111.1C144.98,111.1 133.53,99.64 133.53,85.56C133.53,71.48 144.99,60.02 159.07,60.02L191.77,60.02C205.86,60.02 217.32,71.48 217.32,85.56C217.32,99.64 205.86,111.1 191.77,111.1ZM159.08,78.4C155.14,78.4 151.93,81.61 151.93,85.55C151.93,89.49 155.14,92.7 159.08,92.7L191.78,92.7C195.73,92.7 198.93,89.49 198.93,85.55C198.93,81.61 195.72,78.4 191.78,78.4L159.08,78.4Z" transform="matrix(1,0,0,1,0,57.285)"/><path fill="#170941" fill-rule="nonzero" d="M333.6,111.1L300.9,111.1C286.81,111.1 275.36,99.64 275.36,85.56C275.36,71.48 286.82,60.02 300.9,60.02L333.6,60.02C347.69,60.02 359.14,71.48 359.14,85.56C359.14,99.64 347.68,111.1 333.6,111.1ZM300.9,78.4C296.96,78.4 293.75,81.61 293.75,85.55C293.75,89.49 296.96,92.7 300.9,92.7L333.6,92.7C337.54,92.7 340.75,89.49 340.75,85.55C340.75,81.61 337.54,78.4 333.6,78.4L300.9,78.4Z" transform="matrix(1,0,0,1,0,57.285)"/><path fill="#170941" fill-rule="nonzero" d="M412.47,117.4C412.47,117.4 409.72,112.73 360.21,108.03C308.22,103.09 282.35,113.52 271.64,120.14C269.72,120.96 266.42,121.79 262.55,121.51L261.73,121.51C256.51,121.24 251.82,120.96 246.32,120.96L246.05,120.96C243.03,120.96 236.41,121.23 231.74,121.51C229.54,121.78 227.62,121.51 225.97,120.96C216.06,114.37 190.21,102.81 136.03,108.02C86.49,112.72 83.74,117.39 83.74,117.39L83.47,136.09C83.47,136.09 90.89,138.29 95.58,144.05C100.25,149.82 102.45,182.83 110.44,198.24C122.52,222.19 182.23,216.15 182.23,216.15C182.23,216.15 206.7,218.07 218.54,197.45C228.73,179.85 232.85,155.07 233.95,149.03C236.42,146.56 241.09,143.54 247.98,143.26C255.67,143.26 260.64,147.1 262.84,149.85C263.94,157.27 268.06,180.66 277.97,197.44C289.81,218.07 314.28,216.14 314.28,216.14C314.28,216.14 373.99,222.18 386.07,198.26C393.76,182.85 395.98,149.84 400.93,144.07C405.6,138.03 413.04,136.11 413.04,136.11L412.49,117.38L412.47,117.4ZM213.58,169.22C208.91,191.22 202.84,206.08 162.41,203.88C136.26,202.51 118.11,202.51 113.99,164.55C111.52,140.9 114.26,132.09 116.19,129.07C118.11,126.32 125.01,118.06 165.43,119.43C205.86,120.53 211.65,129.62 214.12,133.74C216.59,137.86 218.51,147.22 213.57,169.22L213.58,169.22ZM381.93,164.55C377.81,202.51 359.66,202.51 333.51,203.88C293.08,206.08 287.01,191.22 282.34,169.22C277.4,147.22 279.32,137.86 281.79,133.74C284.26,129.62 290.06,120.53 330.48,119.43C370.91,118.06 377.8,126.3 379.72,129.07C381.64,132.09 384.39,140.88 381.92,164.55L381.93,164.55Z" transform="matrix(1,0,0,1,0,57.285)"/><defs><linearGradient id="a" x1="0" x2="1" y1="0" y2="0" gradientTransform="matrix(363.52,0,0,363.52,66.48,190.97)" gradientUnits="userSpaceOnUse"><stop offset="0" stop-color="#fff"/><stop offset=".74" stop-color="#dfdfe6"/><stop offset="1" stop-color="#d3d3dd"/></linearGradient></defs></svg>