<?xml version="1.0" encoding="UTF-8"?>
<svg id="Layer_2" data-name="Layer 2" xmlns="http://www.w3.org/2000/svg" xmlns:xlink="http://www.w3.org/1999/xlink" viewBox="0 0 496.48 381.93">
  <defs>
    <style>
      .cls-1 {
        fill: #170941;
      }

      .cls-2 {
        fill: url(#linear-gradient);
      }

      .cls-3 {
        fill: #ecebf2;
      }

      .cls-4 {
        fill: #fff;
      }
    </style>
    <linearGradient id="linear-gradient" x1="66.48" y1="190.97" x2="430" y2="190.97" gradientUnits="userSpaceOnUse">
      <stop offset="0" stop-color="#fff"/>
      <stop offset=".74" stop-color="#dfdfe6"/>
      <stop offset="1" stop-color="#d3d3dd"/>
    </linearGradient>
  </defs>
  <g id="Layer_1-2" data-name="Layer 1">
    <g>
      <g>
        <path class="cls-2" d="M430,190.96v.7c-.08,20.21-3.45,39.65-9.61,57.79-24.36,71.71-92.23,123.29-172.15,123.29s-147.79-51.58-172.15-123.29c-6.19-18.29-9.58-37.89-9.61-58.28v-.2c0-20.46,3.37-40.12,9.61-58.47,13.61-40.1,40.85-73.9,76.19-95.91,27.83-17.35,60.74-27.38,95.97-27.38s68.42,10.12,96.34,27.63c35.17,21.99,62.25,55.71,75.82,95.66,6.23,18.35,9.61,38.01,9.61,58.47Z"/>
        <path class="cls-1" d="M248.24,381.93c-81.86,0-154.54-52.05-180.86-129.53-6.68-19.73-10.07-40.32-10.09-61.23,0-21.25,3.4-41.92,10.09-61.64,14.13-41.63,42.55-77.41,80.03-100.76C177.61,9.95,212.47,0,248.24,0s70.94,10.04,101.22,29.04c37.25,23.29,65.54,58.99,79.64,100.5,6.7,19.72,10.09,40.39,10.09,61.42v.69c-.08,20.81-3.48,41.24-10.09,60.75-26.32,77.48-99,129.54-180.86,129.54ZM248.24,18.39c-32.32,0-63.82,8.99-91.1,25.99-33.88,21.11-59.58,53.44-72.34,91.06-6.05,17.81-9.12,36.49-9.12,55.51.02,19.1,3.09,37.72,9.12,55.54,23.78,70,89.47,117.04,163.44,117.04s139.67-47.04,163.45-117.05c5.97-17.62,9.04-36.09,9.12-54.88v-.66c0-19.02-3.07-37.7-9.12-55.51-12.74-37.51-38.31-69.76-71.99-90.82-27.36-17.16-58.98-26.23-91.46-26.23Z"/>
      </g>
      <g>
        <path class="cls-3" d="M474.61,114.83c0,11.59-2.23,22.66-6.29,32.8-10.52-9.73-24.61-15.67-40.06-15.67-2.68,0-5.29.18-7.87.53-13.57-39.95-40.65-73.67-75.82-95.66,12.4-6.64,26.57-10.4,41.63-10.4,48.82,0,88.41,39.59,88.41,88.41Z"/>
        <path class="cls-1" d="M471.88,163.45l-9.8-9.06c-10.84-10.02-25.64-14.78-40.45-12.78l-7.5,1.01-2.43-7.17c-12.74-37.51-38.31-69.76-71.99-90.82l-13.45-8.41,13.99-7.49c14.04-7.52,29.93-11.49,45.97-11.49,53.82,0,97.6,43.79,97.6,97.6,0,12.53-2.34,24.72-6.95,36.23l-4.97,12.39ZM428.26,122.76c12.52,0,24.64,3.4,35.18,9.76,1.32-5.76,1.98-11.67,1.98-17.69,0-43.68-35.53-79.21-79.21-79.21-7.64,0-15.23,1.11-22.5,3.25,28.32,21.52,50.24,50.67,62.96,83.91.53-.01,1.07-.02,1.6-.02Z"/>
      </g>
      <g>
        <path class="cls-3" d="M487.28,190.96c0,32.6-26.42,59.02-59.02,59.02-2.68,0-5.29-.18-7.87-.53,6.15-18.15,9.52-37.58,9.61-57.79v-.7c0-20.46-3.37-40.12-9.61-58.47,2.57-.35,5.19-.53,7.87-.53,15.45,0,29.53,5.95,40.06,15.67,11.67,10.77,18.96,26.2,18.96,43.32Z"/>
        <path class="cls-1" d="M428.26,259.17c-3.02,0-6.08-.21-9.1-.61l-11.06-1.49,3.58-10.57c5.98-17.63,9.04-36.09,9.12-54.88v-.66c0-19.02-3.07-37.7-9.12-55.51l-3.59-10.58,11.07-1.49c20.24-2.74,40.54,3.77,55.39,17.5,13.93,12.85,21.92,31.11,21.92,50.08,0,37.61-30.6,68.22-68.22,68.22ZM432.69,141.35c4.32,16.1,6.5,32.73,6.5,49.61v.69c-.07,16.65-2.25,33.05-6.51,48.93,25.41-2.25,45.4-23.65,45.4-49.63,0-13.85-5.83-27.18-16.01-36.57-8.14-7.53-18.44-12.07-29.39-13.04Z"/>
      </g>
      <g>
        <path class="cls-4" d="M152.27,36.58c-35.33,22.01-62.58,55.81-76.19,95.91-2.57-.35-5.21-.53-7.89-.53-15.16,0-28.96,5.7-39.42,15.1-3.92-9.97-6.07-20.84-6.07-32.23,0-48.82,39.58-88.41,88.41-88.41,14.86,0,28.86,3.66,41.16,10.16Z"/>
        <path class="cls-1" d="M25.07,162.75l-4.85-12.33c-4.45-11.31-6.71-23.29-6.71-35.59,0-53.82,43.79-97.6,97.6-97.6,15.84,0,31.56,3.88,45.45,11.22l14.15,7.48-13.59,8.46c-33.88,21.11-59.57,53.44-72.34,91.06l-2.43,7.17-7.5-1.01c-14.47-1.94-29.14,2.6-39.93,12.3l-9.85,8.85ZM111.11,35.62c-43.68,0-79.21,35.53-79.21,79.21,0,5.86.63,11.63,1.88,17.24,10.82-6.33,23.28-9.63,36.03-9.29,12.75-33.32,34.76-62.54,63.22-84.11-7.05-2.03-14.38-3.05-21.92-3.05Z"/>
      </g>
      <g>
        <path class="cls-4" d="M66.48,191.16c.02,20.4,3.41,39.99,9.61,58.28-2.57.35-5.21.53-7.89.53-32.6,0-59-26.42-59-59.02,0-17.43,7.56-33.11,19.58-43.9,10.46-9.4,24.26-15.1,39.42-15.1,2.68,0,5.31.18,7.89.53-6.23,18.35-9.61,38.01-9.61,58.47v.2Z"/>
        <path class="cls-1" d="M68.19,259.17C30.59,259.17,0,228.57,0,190.96c0-19.33,8.25-37.82,22.63-50.74,14.78-13.28,34.9-19.51,54.68-16.84l11.07,1.49-3.59,10.58c-6.05,17.81-9.12,36.49-9.12,55.51l-9.2.2h9.2c.02,18.9,3.09,37.52,9.12,55.34l3.58,10.57-11.06,1.49c-3.02.41-6.08.61-9.12.61ZM63.79,141.35c-10.7.95-20.82,5.32-28.87,12.55-10.51,9.43-16.53,22.94-16.53,37.06,0,25.99,19.99,47.4,45.4,49.63-4.31-16.08-6.5-32.65-6.51-49.42v-.21c0-16.87,2.19-33.51,6.51-49.61Z"/>
      </g>
      <polygon class="cls-4" points="306.53 220.73 279.3 207.33 327.98 108.4 358.75 114.59 306.53 220.73"/>
      <rect class="cls-4" x="348.03" y="116.21" width="9.69" height="99" transform="translate(109.39 -138.75) rotate(26.2)"/>
      <g>
        <path class="cls-4" d="M323.51,229.05c-40.52-39.28-75.28-13.27-75.28-13.27,0,0-34.76-26-75.28,13.27-26.81,25.98-45.74,30.58-45.74,30.58,0,0,53.78,58.27,121.02.29,67.24,57.99,121.02-.29,121.02-.29,0,0-18.93-4.6-45.74-30.58Z"/>
        <path class="cls-1" d="M308.95,294.79c-18.05,0-38.72-5.89-60.72-22.99-70.38,54.69-127.2-5.3-127.78-5.94l-10.6-11.48,15.19-3.69c.09-.02,17.26-4.74,41.51-28.25,32.46-31.47,64.91-26.46,81.68-17.5,16.77-8.96,49.22-13.96,81.68,17.5h0c24.25,23.51,41.43,28.22,41.6,28.27l14.79,3.89-10.29,11.26c-.4.43-27.38,28.92-67.06,28.92ZM144.37,262.16c17.25,12.14,54.13,28.5,97.86-9.2l6-5.18,6,5.18c43.71,37.69,80.59,21.36,97.86,9.2-8.83-4.8-20.99-12.94-34.98-26.5h0c-34.09-33.05-62.25-13.33-63.43-12.47l-5.48,3.97-5.48-4.01c-1.12-.81-29.28-20.53-63.37,12.51-13.99,13.56-26.15,21.7-34.98,26.5Z"/>
      </g>
      <path class="cls-1" d="M303.89,175.79c-1.23,0-2.47-.25-3.67-.77-4.66-2.03-6.79-7.45-4.76-12.11,4.53-10.4,14.78-17.12,26.12-17.12s21.56,6.7,26.1,17.07c2.04,4.65-.08,10.08-4.73,12.11-4.65,2.03-10.07-.08-12.11-4.73-1.61-3.68-5.24-6.06-9.25-6.06s-7.65,2.38-9.25,6.07c-1.51,3.46-4.89,5.52-8.44,5.52Z"/>
      <path class="cls-1" d="M192.7,176.77c-3.73,0-7.25-2.29-8.62-6-1.46-3.94-5.26-6.58-9.46-6.58s-8,2.65-9.46,6.58c-1.77,4.76-7.06,7.18-11.82,5.41-4.76-1.77-7.18-7.06-5.41-11.82,4.13-11.1,14.86-18.57,26.7-18.57s22.58,7.46,26.7,18.57c1.77,4.76-.66,10.05-5.42,11.82-1.06.39-2.14.58-3.2.58Z"/>
      <path class="cls-1" d="M191.77,111.1h-32.7c-14.09,0-25.54-11.46-25.54-25.54s11.46-25.54,25.54-25.54h32.7c14.09,0,25.55,11.46,25.55,25.54s-11.46,25.54-25.55,25.54ZM159.08,78.4c-3.94,0-7.15,3.21-7.15,7.15s3.21,7.15,7.15,7.15h32.7c3.95,0,7.15-3.21,7.15-7.15s-3.21-7.15-7.15-7.15h-32.7Z"/>
      <path class="cls-1" d="M333.6,111.1h-32.7c-14.09,0-25.54-11.46-25.54-25.54s11.46-25.54,25.54-25.54h32.7c14.09,0,25.54,11.46,25.54,25.54s-11.46,25.54-25.54,25.54ZM300.9,78.4c-3.94,0-7.15,3.21-7.15,7.15s3.21,7.15,7.15,7.15h32.7c3.94,0,7.15-3.21,7.15-7.15s-3.21-7.15-7.15-7.15h-32.7Z"/>
      <path class="cls-1" d="M412.47,117.4s-2.75-4.67-52.26-9.37c-51.99-4.94-77.86,5.49-88.57,12.11-1.92.82-5.22,1.65-9.09,1.37h-.82c-5.22-.27-9.91-.55-15.41-.55h-.27c-3.02,0-9.64.27-14.31.55-2.2.27-4.12,0-5.77-.55-9.91-6.59-35.76-18.15-89.94-12.94-49.54,4.7-52.29,9.37-52.29,9.37l-.27,18.7s7.42,2.2,12.11,7.96c4.67,5.77,6.87,38.78,14.86,54.19,12.08,23.95,71.79,17.91,71.79,17.91,0,0,24.47,1.92,36.31-18.7,10.19-17.6,14.31-42.38,15.41-48.42,2.47-2.47,7.14-5.49,14.03-5.77,7.69,0,12.66,3.84,14.86,6.59,1.1,7.42,5.22,30.81,15.13,47.59,11.84,20.63,36.31,18.7,36.31,18.7,0,0,59.71,6.04,71.79-17.88,7.69-15.41,9.91-48.42,14.86-54.19,4.67-6.04,12.11-7.96,12.11-7.96l-.55-18.73ZM213.58,169.22c-4.67,22-10.74,36.86-51.17,34.66-26.15-1.37-44.3-1.37-48.42-39.33-2.47-23.65.27-32.46,2.2-35.48,1.92-2.75,8.82-11.01,49.24-9.64,40.43,1.1,46.22,10.19,48.69,14.31,2.47,4.12,4.39,13.48-.55,35.48h0ZM381.93,164.55c-4.12,37.96-22.27,37.96-48.42,39.33-40.43,2.2-46.5-12.66-51.17-34.66-4.94-22-3.02-31.36-.55-35.48,2.47-4.12,8.27-13.21,48.69-14.31,40.43-1.37,47.32,6.87,49.24,9.64,1.92,3.02,4.67,11.81,2.2,35.48h0Z"/>
    </g>
  </g>
</svg>