<?xml version="1.0" encoding="UTF-8"?>
<svg id="Layer_2" data-name="Layer 2" xmlns="http://www.w3.org/2000/svg" xmlns:xlink="http://www.w3.org/1999/xlink" viewBox="0 0 1015.61 194.74">
  <defs>
    <style>
      .cls-1 {
        fill: #170941;
      }

      .cls-2 {
        fill: url(#linear-gradient);
      }

      .cls-3 {
        fill: #ecebf2;
      }

      .cls-4 {
        fill: #fff;
      }
    </style>
    <linearGradient id="linear-gradient" x1="33.9" y1="97.37" x2="219.25" y2="97.37" gradientUnits="userSpaceOnUse">
      <stop offset="0" stop-color="#fff"/>
      <stop offset=".74" stop-color="#dfdfe6"/>
      <stop offset="1" stop-color="#d3d3dd"/>
    </linearGradient>
  </defs>
  <g id="Layer_1-2" data-name="Layer 1">
    <g>
      <g>
        <path class="cls-2" d="M219.25,97.36v.35c-.04,10.31-1.76,20.21-4.9,29.47-12.42,36.56-47.03,62.86-87.78,62.86s-75.36-26.3-87.78-62.86c-3.16-9.33-4.89-19.32-4.9-29.72v-.1c0-10.43,1.72-20.45,4.9-29.81,6.94-20.44,20.83-37.68,38.85-48.9,14.19-8.85,30.97-13.96,48.93-13.96s34.89,5.16,49.12,14.09c17.93,11.21,31.74,28.4,38.66,48.78,3.18,9.36,4.9,19.38,4.9,29.81Z"/>
        <path class="cls-1" d="M126.57,194.74c-41.74,0-78.8-26.54-92.22-66.05-3.41-10.06-5.14-20.56-5.15-31.22,0-10.84,1.73-21.37,5.15-31.43,7.21-21.23,21.7-39.47,40.81-51.37C90.56,5.07,108.34,0,126.57,0s36.17,5.12,51.61,14.8c18.99,11.87,33.42,30.07,40.61,51.24,3.41,10.06,5.15,20.59,5.15,31.32v.35c-.04,10.61-1.77,21.03-5.15,30.97-13.42,39.51-50.48,66.05-92.22,66.05ZM126.57,9.38c-16.48,0-32.54,4.58-46.45,13.25-17.28,10.76-30.38,27.25-36.89,46.43-3.09,9.08-4.65,18.61-4.65,28.31,0,9.74,1.57,19.23,4.65,28.32,12.12,35.69,45.62,59.68,83.34,59.68s71.21-23.98,83.34-59.68c3.05-8.98,4.61-18.4,4.65-27.98v-.33c0-9.7-1.56-19.22-4.65-28.3-6.5-19.13-19.53-35.57-36.7-46.31-13.95-8.75-30.07-13.37-46.63-13.37Z"/>
      </g>
      <g>
        <path class="cls-3" d="M241.99,58.55c0,5.91-1.14,11.56-3.21,16.72-5.37-4.96-12.55-7.99-20.42-7.99-1.37,0-2.7.09-4.01.27-6.92-20.37-20.73-37.56-38.66-48.78,6.32-3.39,13.55-5.3,21.23-5.3,24.89,0,45.08,20.18,45.08,45.08Z"/>
        <path class="cls-1" d="M240.6,83.34l-5-4.62c-5.53-5.11-13.07-7.54-20.62-6.52l-3.82.52-1.24-3.66c-6.5-19.13-19.53-35.57-36.7-46.31l-6.86-4.29,7.13-3.82c7.16-3.83,15.26-5.86,23.44-5.86,27.44,0,49.77,22.33,49.77,49.77,0,6.39-1.19,12.6-3.55,18.47l-2.54,6.32ZM218.36,62.59c6.39,0,12.56,1.74,17.94,4.97.67-2.93,1.01-5.95,1.01-9.02,0-22.27-18.12-40.39-40.39-40.39-3.89,0-7.76.56-11.47,1.66,14.44,10.97,25.61,25.83,32.1,42.78.27,0,.54,0,.81,0Z"/>
      </g>
      <g>
        <path class="cls-3" d="M248.45,97.36c0,16.62-13.47,30.09-30.09,30.09-1.37,0-2.7-.09-4.01-.27,3.14-9.25,4.86-19.16,4.9-29.47v-.35c0-10.43-1.72-20.45-4.9-29.81,1.31-.18,2.65-.27,4.01-.27,7.88,0,15.06,3.03,20.42,7.99,5.95,5.49,9.67,13.36,9.67,22.09Z"/>
        <path class="cls-1" d="M218.36,132.15c-1.53,0-3.09-.11-4.64-.31l-5.64-.76,1.83-5.39c3.05-8.99,4.61-18.4,4.65-27.98v-.33c0-9.7-1.56-19.22-4.65-28.3l-1.83-5.39,5.64-.76c10.32-1.39,20.67,1.92,28.24,8.92,7.1,6.56,11.18,15.86,11.18,25.53,0,19.18-15.6,34.78-34.78,34.78ZM220.62,72.07c2.2,8.21,3.32,16.69,3.32,25.29v.35c-.03,8.49-1.15,16.85-3.32,24.95,12.96-1.14,23.15-12.06,23.15-25.3,0-7.06-2.97-13.86-8.16-18.65-4.15-3.84-9.4-6.16-14.98-6.65Z"/>
      </g>
      <g>
        <path class="cls-4" d="M77.64,18.65c-18.02,11.22-31.91,28.46-38.85,48.9-1.31-.18-2.66-.27-4.02-.27-7.73,0-14.77,2.91-20.1,7.7-2-5.09-3.09-10.63-3.09-16.43,0-24.89,20.18-45.08,45.08-45.08,7.58,0,14.71,1.87,20.99,5.18Z"/>
        <path class="cls-1" d="M12.78,82.98l-2.47-6.29c-2.27-5.77-3.42-11.87-3.42-18.15C6.89,31.11,29.21,8.78,56.65,8.78c8.08,0,16.09,1.98,23.18,5.72l7.21,3.81-6.93,4.31c-17.27,10.76-30.37,27.25-36.88,46.43l-1.24,3.66-3.83-.52c-7.38-.99-14.86,1.32-20.36,6.27l-5.02,4.51ZM56.65,18.16c-22.27,0-40.39,18.12-40.39,40.39,0,2.99.32,5.93.96,8.79,5.52-3.23,11.89-4.89,18.37-4.74,6.5-16.99,17.72-31.89,32.23-42.88-3.59-1.03-7.33-1.56-11.17-1.56Z"/>
      </g>
      <g>
        <path class="cls-4" d="M33.9,97.47c.01,10.4,1.74,20.39,4.9,29.72-1.31.18-2.66.27-4.02.27-16.62,0-30.08-13.47-30.08-30.09,0-8.89,3.86-16.88,9.98-22.38,5.34-4.79,12.37-7.7,20.1-7.7,1.37,0,2.71.09,4.02.27-3.18,9.36-4.9,19.38-4.9,29.81v.1Z"/>
        <path class="cls-1" d="M34.77,132.15C15.6,132.15,0,116.54,0,97.36c0-9.86,4.21-19.29,11.54-25.87,7.54-6.77,17.8-9.95,27.88-8.59l5.64.76-1.83,5.39c-3.08,9.08-4.65,18.6-4.65,28.3l-4.69.1h4.69c0,9.63,1.57,19.13,4.65,28.21l1.82,5.39-5.64.76c-1.54.21-3.11.31-4.65.31ZM32.52,72.07c-5.46.48-10.61,2.71-14.72,6.4-5.36,4.81-8.43,11.7-8.43,18.89,0,13.25,10.19,24.17,23.15,25.31-2.2-8.2-3.31-16.65-3.32-25.2v-.11c0-8.6,1.11-17.09,3.32-25.3Z"/>
      </g>
      <polygon class="cls-4" points="156.29 112.54 142.41 105.71 167.23 55.27 182.92 58.43 156.29 112.54"/>
      <rect class="cls-4" x="177.45" y="59.25" width="4.94" height="50.48" transform="translate(55.78 -70.75) rotate(26.2)"/>
      <g>
        <path class="cls-4" d="M164.95,116.79c-20.66-20.03-38.38-6.77-38.38-6.77,0,0-17.72-13.26-38.38,6.77-13.67,13.25-23.32,15.59-23.32,15.59,0,0,27.42,29.71,61.71.15,34.29,29.57,61.71-.15,61.71-.15,0,0-9.65-2.35-23.32-15.59Z"/>
        <path class="cls-1" d="M157.53,150.31c-9.2,0-19.74-3-30.96-11.72-35.88,27.89-64.86-2.7-65.15-3.03l-5.4-5.85,7.74-1.88s8.8-2.42,21.17-14.4c16.55-16.04,33.1-13.49,41.65-8.92,8.55-4.57,25.1-7.11,41.65,8.92h0c12.37,11.99,21.12,14.39,21.21,14.41l7.54,1.98-5.25,5.74c-.2.22-13.96,14.75-34.19,14.75ZM73.61,133.67c8.8,6.19,27.6,14.53,49.89-4.69l3.06-2.64,3.06,2.64c22.29,19.22,41.09,10.89,49.89,4.69-4.5-2.45-10.7-6.6-17.83-13.51h0c-17.38-16.84-31.74-6.79-32.34-6.36l-2.8,2.02-2.79-2.04c-.57-.42-14.93-10.47-32.31,6.38-7.13,6.91-13.33,11.07-17.83,13.51Z"/>
      </g>
      <path class="cls-1" d="M154.95,89.63c-.63,0-1.26-.13-1.87-.39-2.37-1.03-3.46-3.8-2.42-6.17,2.31-5.3,7.54-8.73,13.32-8.73s10.99,3.42,13.31,8.7c1.04,2.37-.04,5.14-2.41,6.18-2.37,1.04-5.14-.04-6.18-2.41-.82-1.88-2.67-3.09-4.72-3.09s-3.9,1.22-4.72,3.1c-.77,1.76-2.49,2.82-4.3,2.82Z"/>
      <path class="cls-1" d="M98.25,90.13c-1.9,0-3.69-1.17-4.4-3.06-.75-2.01-2.68-3.36-4.82-3.36s-4.08,1.35-4.83,3.36c-.9,2.43-3.6,3.66-6.03,2.76-2.43-.9-3.66-3.6-2.76-6.03,2.11-5.66,7.58-9.47,13.61-9.47s11.51,3.8,13.61,9.47c.9,2.43-.33,5.13-2.76,6.03-.54.2-1.09.29-1.63.29Z"/>
      <path class="cls-1" d="M97.78,56.64h-16.67c-7.18,0-13.02-5.84-13.02-13.02s5.84-13.03,13.02-13.03h16.67c7.18,0,13.03,5.84,13.03,13.03s-5.84,13.02-13.03,13.02ZM81.11,39.97c-2.01,0-3.65,1.64-3.65,3.65s1.64,3.65,3.65,3.65h16.67c2.01,0,3.65-1.64,3.65-3.65s-1.64-3.65-3.65-3.65h-16.67Z"/>
      <path class="cls-1" d="M170.1,56.64h-16.67c-7.18,0-13.02-5.84-13.02-13.02s5.84-13.03,13.02-13.03h16.67c7.18,0,13.02,5.84,13.02,13.03s-5.84,13.02-13.02,13.02ZM153.42,39.97c-2.01,0-3.65,1.64-3.65,3.65s1.64,3.65,3.65,3.65h16.67c2.01,0,3.65-1.64,3.65-3.65s-1.64-3.65-3.65-3.65h-16.67Z"/>
      <g>
        <polygon class="cls-1" points="410.03 127.63 383.2 41.66 361.54 41.66 334.88 127.63 308.4 41.66 282.09 41.66 322.5 160.3 346.57 160.3 372.02 77.94 397.82 160.3 421.72 160.3 461.78 41.66 436.33 41.66 410.03 127.63"/>
        <path class="cls-1" d="M482.76,32.37c-7.91,0-14.1,6.02-14.1,13.93s6.19,13.93,14.1,13.93,14.1-6.02,14.1-13.93-6.19-13.93-14.1-13.93Z"/>
        <rect class="cls-1" x="471.59" y="72.61" width="22.35" height="87.7"/>
        <path class="cls-1" d="M540.93,49.22h-21.15v16.33c0,4.64-2.58,7.05-7.22,7.05h-7.91v20.46h13.93v39.55c0,18.05,10.49,27.68,30.61,27.68h12.04v-20.46h-8.77c-7.22,0-11.52-4.13-11.52-11.01v-35.77h20.29v-20.46h-20.29v-23.39Z"/>
        <path class="cls-1" d="M623.91,70.54c-11.35,0-20.98,4.3-27.86,12.38v-41.27h-22.35v118.65h22.35v-48.15c0-12.04,8.25-19.95,20.64-19.95,11.52,0,19.09,7.74,19.09,19.6v48.49h22.35v-55.71c0-20.63-13.58-34.05-34.22-34.05Z"/>
        <path class="cls-1" d="M732.75,39.59c-35.77,0-62.59,26.48-62.59,61.39s26.82,61.39,62.59,61.39,62.59-26.48,62.59-61.39-27-61.39-62.59-61.39ZM732.75,139.5c-21.84,0-38.35-16.51-38.35-38.52s16.51-38.52,38.35-38.52,38.17,16.51,38.17,38.52-16.51,38.52-38.17,38.52Z"/>
        <path class="cls-1" d="M894.11,49.22h-21.15v16.33c0,4.64-2.58,7.05-7.22,7.05h-26.54v-23.39h-21.15v16.33c0,4.64-2.58,7.05-7.22,7.05h-7.91v20.46h13.93v39.55c0,18.05,10.49,27.68,30.61,27.68h12.04v-20.46h-8.77c-7.22,0-11.52-4.13-11.52-11.01v-35.77h32.56v39.55c0,18.05,10.49,27.68,30.61,27.68h12.04v-20.46h-8.77c-7.22,0-11.52-4.13-11.52-11.01v-35.77h20.29v-20.46h-20.29v-23.39Z"/>
        <path class="cls-1" d="M968.49,70.54c-26.82,0-47.11,19.78-47.11,45.91s20.29,45.91,47.11,45.91,47.12-19.78,47.12-45.91-20.29-45.91-47.12-45.91ZM968.49,140.7c-13.76,0-24.07-10.49-24.07-24.25s10.32-24.25,24.07-24.25,24.08,10.49,24.08,24.25-10.15,24.25-24.08,24.25Z"/>
      </g>
      <path class="cls-1" d="M210.31,59.86s-1.4-2.38-26.65-4.78c-26.51-2.52-39.7,2.8-45.16,6.18-.98.42-2.66.84-4.64.7h-.42c-2.66-.14-5.06-.28-7.86-.28h-.14c-1.54,0-4.92.14-7.3.28-1.12.14-2.1,0-2.94-.28-5.06-3.36-18.23-9.26-45.86-6.6-25.26,2.39-26.66,4.78-26.66,4.78l-.14,9.54s3.78,1.12,6.18,4.06c2.38,2.94,3.5,19.77,7.58,27.63,6.16,12.21,36.6,9.13,36.6,9.13,0,0,12.48.98,18.51-9.54,5.2-8.98,7.3-21.61,7.86-24.69,1.26-1.26,3.64-2.8,7.16-2.94,3.92,0,6.46,1.96,7.58,3.36.56,3.78,2.66,15.71,7.72,24.27,6.04,10.52,18.51,9.54,18.51,9.54,0,0,30.44,3.08,36.6-9.12,3.92-7.86,5.06-24.69,7.58-27.63,2.38-3.08,6.18-4.06,6.18-4.06l-.28-9.55ZM108.9,86.28c-2.38,11.22-5.48,18.79-26.09,17.67-13.33-.7-22.59-.7-24.69-20.05-1.26-12.06.14-16.55,1.12-18.09.98-1.4,4.5-5.62,25.11-4.92,20.61.56,23.57,5.2,24.83,7.3,1.26,2.1,2.24,6.88-.28,18.09h0ZM194.74,83.9c-2.1,19.35-11.36,19.35-24.69,20.05-20.61,1.12-23.71-6.46-26.09-17.67-2.52-11.22-1.54-15.99-.28-18.09,1.26-2.1,4.21-6.74,24.83-7.3,20.61-.7,24.13,3.5,25.11,4.92.98,1.54,2.38,6.02,1.12,18.09h0Z"/>
    </g>
  </g>
</svg>