<svg id="Capa_1" enable-background="new 0 0 512 512" height="512" viewBox="0 0 512 512" width="512" xmlns="http://www.w3.org/2000/svg"><g><g><path d="m367.081 347.252-22.943 9.921-9.144-29.555h-157.989l-9.144 34.175-22.943-14.542c-25.404 22.304-56.638 67.892-56.638 157.249h56.639l22.943-17.098 22.943 17.098h130.392l22.943-19.149 22.943 19.149h56.639c-.002-89.357-31.236-134.945-56.641-157.248z" fill="#edecff"/><path d="m256 387.174c42.837 0 82.638-13.228 115.553-35.799-1.505-1.454-2.999-2.83-4.472-4.123l-22.943 9.921-9.144-29.555h-157.989l-9.144 34.175-22.943-14.542c-1.473 1.293-2.967 2.669-4.472 4.123 32.916 22.573 72.717 35.8 115.554 35.8z" fill="#d2d2ff"/><path d="m177.005 327.619s-14.674 4.347-32.087 19.633v157.248h45.885v-176.881z" fill="#e8a881"/><path d="m190.804 442.693c-2.466-.401-4.994-.619-7.572-.619h-30.741c-2.578 0-5.105.218-7.572.619v42.691c2.466.402 4.994.619 7.572.619h30.741c2.578 0 5.106-.217 7.572-.619z" fill="#e5876e"/><path d="m183.232 422.074h-30.741c-9.369 0-16.965 7.595-16.965 16.965 0 9.369 7.595 16.965 16.965 16.965h30.741c9.369 0 16.965-7.595 16.965-16.965s-7.595-16.965-16.965-16.965z" fill="#fcbf72"/><circle cx="256" cy="405.948" fill="#d2d2ff" r="13.681"/><circle cx="256" cy="462.948" fill="#d2d2ff" r="13.681"/><path d="m334.994 327.619s14.674 4.347 32.087 19.633v157.248h-45.885v-176.881z" fill="#e8a881"/><path d="m367.081 442.693c-2.466-.401-4.994-.619-7.572-.619h-30.742c-2.578 0-5.105.218-7.572.619v42.691c2.466.402 4.994.619 7.572.619h30.742c2.578 0 5.105-.217 7.572-.619z" fill="#e5876e"/><path d="m328.768 422.074h30.741c9.369 0 16.965 7.595 16.965 16.965 0 9.369-7.595 16.965-16.965 16.965h-30.741c-9.369 0-16.965-7.595-16.965-16.965s7.595-16.965 16.965-16.965z" fill="#fcbf72"/><path d="m112.538 42.792c-38.706 0-70.082 31.377-70.082 70.082 0 35.522 28.796 64.318 64.318 64.318h70.082v-70.082c.001-35.522-28.796-64.318-64.318-64.318z" fill="#edecff"/><path d="m399.462 42.792c38.706 0 70.082 31.377 70.082 70.082 0 35.522-28.796 64.318-64.318 64.318h-70.082v-70.082c-.001-35.522 28.796-64.318 64.318-64.318z" fill="#edecff"/><circle cx="433.857" cy="182.337" fill="#f9b896" r="47.398"/><path d="m321.196 327.619v48.915c16.305-5.488 31.695-12.979 45.885-22.173v-7.108c-17.413-15.286-32.086-19.633-32.086-19.633h-13.799z" fill="#e5876e"/><path d="m144.919 347.252v7.108c14.19 9.194 29.581 16.685 45.885 22.173v-48.915h-13.799c0 .001-14.673 4.348-32.086 19.634z" fill="#e5876e"/><circle cx="256" cy="182.337" fill="#f9cdb6" r="174.837"/><path d="m252.913 357.135c-59.831-38.342-99.483-105.417-99.483-181.754 0-66.859 30.42-126.611 78.172-166.178-69.507 9.707-125.917 60.275-144.181 126.65-3.001-.596-6.102-.914-9.278-.914-26.177 0-47.398 21.221-47.398 47.398s21.221 47.398 47.398 47.398c3.176 0 6.276-.318 9.277-.914 20.097 73.042 86.389 126.943 165.493 128.314z" fill="#f9b896"/><path d="m194.873 102.392h-24.886c-10.299 0-18.649 8.349-18.649 18.649 0 10.299 8.349 18.649 18.649 18.649h24.886c10.299 0 18.649-8.349 18.649-18.649-.001-10.299-8.35-18.649-18.649-18.649z" fill="#edecff"/><path d="m317.127 102.392h24.886c10.299 0 18.649 8.349 18.649 18.649 0 10.299-8.349 18.649-18.649 18.649h-24.886c-10.299 0-18.649-8.349-18.649-18.649 0-10.299 8.35-18.649 18.649-18.649z" fill="#edecff"/><ellipse cx="173.909" cy="202.774" fill="#ffa0ab" rx="28.99" ry="23.086"/><ellipse cx="338.091" cy="202.774" fill="#ffa0ab" rx="28.99" ry="23.086"/><path d="m344.664 251.78c-17.771-19.927-28.099-75.599-88.664-45.21-60.564-30.39-70.892 25.282-88.664 45.21-4.959 5.561-2.802 14.069 4.171 17.128 18.768 8.235 50.723 13.304 84.493-21.132 33.77 34.436 65.724 29.367 84.493 21.132 6.972-3.059 9.13-11.567 4.171-17.128z" fill="#edecff"/></g><g><path d="m221.021 121.041c0-14.418-11.73-26.148-26.148-26.148h-24.886c-14.419 0-26.149 11.73-26.149 26.149 0 14.418 11.73 26.148 26.149 26.148h24.886c14.418-.001 26.148-11.731 26.148-26.149zm-26.148 11.148h-24.886c-6.147 0-11.149-5.001-11.149-11.149 0-6.147 5.001-11.148 11.149-11.148h24.886c6.147 0 11.148 5.001 11.148 11.149 0 6.147-5.001 11.148-11.148 11.148z"/><path d="m368.162 121.041c0-14.418-11.73-26.148-26.149-26.148h-24.886c-14.418 0-26.148 11.73-26.148 26.149 0 14.418 11.73 26.148 26.148 26.148h24.886c14.419-.001 26.149-11.731 26.149-26.149zm-26.149 11.148h-24.886c-6.147 0-11.148-5.001-11.148-11.149 0-6.147 5.001-11.148 11.148-11.148h24.886c6.147 0 11.149 5.001 11.149 11.149 0 6.147-5.001 11.148-11.149 11.148z"/><path d="m169.505 177.652c0 4.142 3.358 7.5 7.5 7.5s7.5-3.358 7.5-7.5c0-3.473 2.825-6.299 6.299-6.299 3.473 0 6.298 2.826 6.298 6.299 0 4.142 3.358 7.5 7.5 7.5s7.5-3.358 7.5-7.5c0-11.744-9.554-21.299-21.298-21.299s-21.299 9.555-21.299 21.299z"/><path d="m314.897 177.652c0-3.473 2.826-6.299 6.299-6.299s6.299 2.826 6.299 6.299c0 4.142 3.358 7.5 7.5 7.5s7.5-3.358 7.5-7.5c0-11.744-9.554-21.299-21.299-21.299s-21.299 9.555-21.299 21.299c0 4.142 3.358 7.5 7.5 7.5 4.143 0 7.5-3.358 7.5-7.5z"/><path d="m168.494 275.776c28.196 12.371 59.25 8.156 87.506-17.583 25.193 22.949 55.951 31.427 87.506 17.583 11.54-5.064 15.174-19.547 6.755-28.988-3.397-3.81-6.777-9.627-10.355-15.787-13.136-22.612-32.841-56.542-83.906-32.762-51.064-23.78-70.77 10.149-83.906 32.762-3.578 6.16-6.958 11.978-10.355 15.787-8.437 9.461-4.763 23.934 6.755 28.988zm4.44-19.005c4.409-4.944 8.159-11.4 12.13-18.236 13.687-23.56 26.613-45.814 67.572-25.262 2.117 1.062 4.61 1.062 6.728 0 40.959-20.552 53.886 1.702 67.571 25.262 3.971 6.835 7.722 13.292 12.131 18.236 1.586 1.778.667 4.28-1.587 5.268-18.176 7.975-46.137 11.063-76.124-19.516-2.937-2.994-7.767-3-10.71 0-29.987 30.579-57.949 27.491-76.124 19.516-2.26-.99-3.17-3.494-1.587-5.268z"/><path d="m256 384.766c-11.679 0-21.181 9.502-21.181 21.181s9.502 21.181 21.181 21.181 21.181-9.502 21.181-21.181-9.502-21.181-21.181-21.181zm0 27.362c-3.408 0-6.181-2.773-6.181-6.181s2.773-6.181 6.181-6.181 6.181 2.773 6.181 6.181-2.773 6.181-6.181 6.181z"/><path d="m256 441.766c-11.679 0-21.181 9.502-21.181 21.181 0 11.68 9.502 21.181 21.181 21.181s21.181-9.501 21.181-21.181c0-11.679-9.502-21.181-21.181-21.181zm0 27.362c-3.408 0-6.181-2.773-6.181-6.181s2.773-6.181 6.181-6.181 6.181 2.773 6.181 6.181-2.773 6.181-6.181 6.181z"/><path d="m399.462 35.292c-9.806 0-19.253 1.938-28.156 5.754-9.514-7.748-19.896-14.618-31.064-20.447-3.672-1.917-8.203-.493-10.119 3.179-1.917 3.672-.493 8.202 3.179 10.119 54.293 28.336 90.035 84.717 90.035 148.44 0 92.628-75.401 167.337-167.338 167.337-92.045 0-167.337-74.861-167.337-167.337.001-93.985 76.716-167.337 167.338-167.337 17.336 0 34.439 2.648 50.835 7.87 3.946 1.257 8.165-.924 9.422-4.87 1.257-3.947-.923-8.166-4.87-9.423-17.87-5.691-36.505-8.577-55.387-8.577-43.649 0-83.759 15.424-115.183 41.098-8.938-3.851-18.427-5.807-28.278-5.807-56.246 0-92.852 58.117-71.462 106.591-10.952 10.043-17.832 24.459-17.832 40.455 0 31.637 26.886 57.031 58.818 54.74 12.276 38.922 37.285 72.241 70.115 95.063-4.167 2.842-8.249 6-12.205 9.474 0 0-.001.001-.001.001-14.591 12.809-26.771 29.083-36.203 48.372-1.82 3.721-.278 8.212 3.443 10.032 3.723 1.819 8.213.278 10.032-3.443 5.687-11.628 12.44-22.02 20.176-31.057v54.256c-6.115 4.751-9.394 11.984-9.394 19.263v.001c0 7.538 3.458 14.645 9.394 19.262v38.699h-41.563c.564-27.284 4.227-52.059 10.909-73.739 1.22-3.958-1-8.156-4.958-9.376-3.96-1.22-8.157 1-9.376 4.958-7.732 25.082-11.652 53.902-11.652 85.657 0 4.142 3.358 7.5 7.5 7.5h335.44c4.142 0 7.5-3.358 7.5-7.5 0-91.679-32.188-139.179-59.191-162.884 0 0-.001-.001-.001-.001-3.957-3.474-8.039-6.632-12.205-9.474 32.83-22.823 57.839-56.141 70.115-95.063 32.007 2.285 58.818-23.167 58.818-54.741 0-15.996-6.88-30.412-17.832-40.455 21.332-48.35-15.103-106.59-71.462-106.59zm-345.761 97.881c-14.592-38.212 14.574-82.881 58.837-82.881 5.322 0 10.512.719 15.519 2.145-21.33 20.98-37.071 46.663-46.016 75.142-9.734-.693-19.563 1.211-28.34 5.594zm24.354 89.061c-21.959-.048-39.81-17.928-39.81-39.897 0-21.394 17.125-39.722 39.81-39.896-2.802 12.562-4.392 26.362-4.392 39.896 0 13.636 1.638 27.577 4.392 39.897zm281.454 226.269s-30.739 0-30.741 0c-5.115 0-9.465-4.318-9.465-9.464 0-5.235 4.305-9.465 9.465-9.465h30.741c5.245 0 9.458 4.294 9.464 9.478-.006 5.25-4.334 9.451-9.464 9.451zm.072-33.929c-.024 0-.048 0-.072 0h-30.741c-.024 0-.048 0-.072 0v-64.982c5.859-2.551 11.605-5.421 17.168-8.577 4.672 2.759 9.265 6.005 13.717 9.696zm-176.349 33.929h-30.741c-5.261 0-9.465-4.327-9.465-9.464 0-5.125 4.202-9.465 9.465-9.465h30.741c5.136 0 9.458 4.325 9.464 9.478-.006 5.228-4.313 9.451-9.464 9.451zm.072-33.929c-.024 0-.048 0-.072 0h-30.741c-.024 0-.048 0-.071 0v-63.863c4.452-3.69 9.045-6.937 13.717-9.696 5.563 3.155 11.309 6.026 17.168 8.577v64.982zm-30.884 48.929h.062.01 30.741.01.062v33.497h-30.885zm45.884-5.202c5.868-4.586 9.364-11.591 9.391-19.185 0-7.692-3.501-14.756-9.391-19.339v-64.429c18.534 6.189 37.967 9.327 57.695 9.327 19.091 0 38.619-2.957 57.696-9.327v64.429c-5.982 4.666-9.393 11.785-9.393 19.263v.001c0 7.537 3.447 14.618 9.393 19.262v38.697h-115.391zm130.392 5.202h.062.01 30.741.01.062v33.497h-30.885zm87.448 33.497h-41.563v-38.699c5.913-4.591 9.393-11.722 9.393-19.263 0-7.558-3.49-14.67-9.393-19.263v-54.26c20.387 23.795 40.19 64.145 41.563 131.485zm-16.682-446.708c44.22 0 73.449 44.623 58.837 82.881-8.328-4.164-18.242-6.307-28.327-5.596-8.917-28.444-24.701-54.234-45.978-75.154 4.99-1.416 10.163-2.131 15.468-2.131zm74.293 132.045c0 21.97-17.851 39.85-39.81 39.897 2.765-12.371 4.392-26.221 4.392-39.897 0-13.52-1.581-27.303-4.392-39.896 22.513.171 39.81 18.346 39.81 39.896z"/></g></g></svg>