<svg width="351" height="351" viewBox="0 0 351 351" fill="none" xmlns="http://www.w3.org/2000/svg">
<path d="M306.71 187.709C319.53 109.616 266.459 35.9432 188.174 23.1551C109.888 10.3669 36.0321 63.3065 23.2123 141.399C10.3925 219.491 63.4632 293.165 141.749 305.953C220.035 318.741 293.89 265.801 306.71 187.709Z" fill="currentColor"/>
<path d="M141.648 224.496C141.648 225.93 140.485 227.09 139.047 227.09C137.609 227.09 136.446 225.93 136.446 224.496C136.446 223.061 137.609 221.901 139.047 221.901C140.485 221.901 141.648 223.061 141.648 224.496Z" fill="#000000" fill-opacity="0.3"/>
<path d="M172.309 224.496C172.309 225.93 171.146 227.09 169.708 227.09C168.27 227.09 167.107 225.93 167.107 224.496C167.107 223.061 168.27 221.901 169.708 221.901C171.146 221.901 172.309 223.061 172.309 224.496Z" fill="#000000" fill-opacity="0.3"/>
<path d="M202.971 224.496C202.971 225.93 201.808 227.09 200.37 227.09C198.931 227.09 197.769 225.93 197.769 224.496C197.769 223.061 198.931 221.901 200.37 221.901C201.808 221.901 202.971 223.061 202.971 224.496Z" fill="#000000" fill-opacity="0.3"/>
<path d="M233.601 224.496C233.601 225.93 232.439 227.09 231 227.09C229.562 227.09 228.399 225.93 228.399 224.496C228.399 223.061 229.562 221.901 231 221.901C232.439 221.901 233.601 223.061 233.601 224.496Z" fill="#000000" fill-opacity="0.3"/>
<path d="M264.263 224.496C264.263 225.93 263.1 227.09 261.662 227.09C260.223 227.09 259.061 225.93 259.061 224.496C259.061 223.061 260.223 221.901 261.662 221.901C263.1 221.901 264.263 223.061 264.263 224.496Z" fill="#000000" fill-opacity="0.3"/>
<path d="M139.047 191.346C140.485 191.346 141.648 192.506 141.648 193.941C141.648 195.375 140.485 196.535 139.047 196.535C137.609 196.535 136.446 195.375 136.446 193.941C136.446 192.506 137.609 191.346 139.047 191.346Z" fill="#000000" fill-opacity="0.3"/>
<path d="M139.047 160.76C140.485 160.76 141.648 161.92 141.648 163.355C141.648 164.79 140.485 165.95 139.047 165.95C137.609 165.95 136.446 164.79 136.446 163.355C136.446 161.92 137.609 160.76 139.047 160.76Z" fill="#000000" fill-opacity="0.3"/>
<path d="M139.047 130.175C140.485 130.175 141.648 131.335 141.648 132.77C141.648 134.204 140.485 135.364 139.047 135.364C137.609 135.364 136.446 134.204 136.446 132.77C136.446 131.335 137.609 130.175 139.047 130.175Z" fill="#000000" fill-opacity="0.3"/>
<path d="M139.047 99.5894C140.485 99.5894 141.648 100.749 141.648 102.184C141.648 103.619 140.485 104.779 139.047 104.779C137.609 104.779 136.446 103.619 136.446 102.184C136.446 100.749 137.609 99.5894 139.047 99.5894Z" fill="#000000" fill-opacity="0.3"/>
<path d="M169.708 191.346C171.146 191.346 172.309 192.506 172.309 193.941C172.309 195.375 171.146 196.535 169.708 196.535C168.27 196.535 167.107 195.375 167.107 193.941C167.107 192.506 168.27 191.346 169.708 191.346Z" fill="#000000" fill-opacity="0.3"/>
<path d="M169.708 160.76C171.146 160.76 172.309 161.92 172.309 163.355C172.309 164.79 171.146 165.95 169.708 165.95C168.27 165.95 167.107 164.79 167.107 163.355C167.107 161.92 168.27 160.76 169.708 160.76Z" fill="#000000" fill-opacity="0.3"/>
<path d="M169.708 130.175C171.146 130.175 172.309 131.335 172.309 132.77C172.309 134.204 171.146 135.364 169.708 135.364C168.27 135.364 167.107 134.204 167.107 132.77C167.107 131.335 168.27 130.175 169.708 130.175Z" fill="#000000" fill-opacity="0.3"/>
<path d="M169.708 99.5894C171.146 99.5894 172.309 100.749 172.309 102.184C172.309 103.619 171.146 104.779 169.708 104.779C168.27 104.779 167.107 103.619 167.107 102.184C167.107 100.749 168.27 99.5894 169.708 99.5894Z" fill="#000000" fill-opacity="0.3"/>
<path d="M200.37 191.346C201.808 191.346 202.971 192.506 202.971 193.941C202.971 195.375 201.808 196.535 200.37 196.535C198.931 196.535 197.769 195.375 197.769 193.941C197.769 192.506 198.931 191.346 200.37 191.346Z" fill="#000000" fill-opacity="0.3"/>
<path d="M200.37 160.76C201.808 160.76 202.971 161.92 202.971 163.355C202.971 164.79 201.808 165.95 200.37 165.95C198.931 165.95 197.769 164.79 197.769 163.355C197.769 161.92 198.931 160.76 200.37 160.76Z" fill="#000000" fill-opacity="0.3"/>
<path d="M200.37 130.175C201.808 130.175 202.971 131.335 202.971 132.77C202.971 134.204 201.808 135.364 200.37 135.364C198.931 135.364 197.769 134.204 197.769 132.77C197.769 131.335 198.931 130.175 200.37 130.175Z" fill="#000000" fill-opacity="0.3"/>
<path d="M200.37 99.5894C201.808 99.5894 202.971 100.749 202.971 102.184C202.971 103.619 201.808 104.779 200.37 104.779C198.931 104.779 197.769 103.619 197.769 102.184C197.769 100.749 198.931 99.5894 200.37 99.5894Z" fill="#000000" fill-opacity="0.3"/>
<path d="M231 191.346C232.439 191.346 233.601 192.506 233.601 193.941C233.601 195.375 232.439 196.535 231 196.535C229.562 196.535 228.399 195.375 228.399 193.941C228.399 192.506 229.562 191.346 231 191.346Z" fill="#000000" fill-opacity="0.3"/>
<path d="M231 160.76C232.439 160.76 233.601 161.92 233.601 163.355C233.601 164.79 232.439 165.95 231 165.95C229.562 165.95 228.399 164.79 228.399 163.355C228.399 161.92 229.562 160.76 231 160.76Z" fill="#000000" fill-opacity="0.3"/>
<path d="M231 130.175C232.439 130.175 233.601 131.335 233.601 132.77C233.601 134.204 232.439 135.364 231 135.364C229.562 135.364 228.399 134.204 228.399 132.77C228.399 131.335 229.562 130.175 231 130.175Z" fill="#000000" fill-opacity="0.3"/>
<path d="M231 99.5894C232.439 99.5894 233.601 100.749 233.601 102.184C233.601 103.619 232.439 104.779 231 104.779C229.562 104.779 228.399 103.619 228.399 102.184C228.399 100.749 229.562 99.5894 231 99.5894Z" fill="#000000" fill-opacity="0.3"/>
<path d="M261.662 191.346C263.1 191.346 264.263 192.506 264.263 193.941C264.263 195.375 263.1 196.535 261.662 196.535C260.223 196.535 259.061 195.375 259.061 193.941C259.061 192.506 260.223 191.346 261.662 191.346Z" fill="#000000" fill-opacity="0.3"/>
<path d="M261.662 160.76C263.1 160.76 264.263 161.92 264.263 163.355C264.263 164.79 263.1 165.95 261.662 165.95C260.223 165.95 259.061 164.79 259.061 163.355C259.061 161.92 260.223 160.76 261.662 160.76Z" fill="#000000" fill-opacity="0.3"/>
<path d="M261.662 130.175C263.1 130.175 264.263 131.335 264.263 132.77C264.263 134.204 263.1 135.364 261.662 135.364C260.223 135.364 259.061 134.204 259.061 132.77C259.061 131.335 260.223 130.175 261.662 130.175Z" fill="#000000" fill-opacity="0.3"/>
<path d="M261.662 99.5894C263.1 99.5894 264.263 100.749 264.263 102.184C264.263 103.619 263.1 104.779 261.662 104.779C260.223 104.779 259.061 103.619 259.061 102.184C259.061 100.749 260.223 99.5894 261.662 99.5894Z" fill="#000000" fill-opacity="0.3"/>
<path d="M327.682 209.404C340.502 131.311 287.432 57.6382 209.146 44.8501C130.86 32.062 57.0044 85.0016 44.1846 163.094C31.3648 241.186 84.4355 314.86 162.721 327.648C241.007 340.436 314.863 287.496 327.682 209.404Z" stroke="#000000" stroke-opacity="0.3" stroke-width="0.5" stroke-miterlimit="10"/>
</svg>
